<?xml version="1.0"?>
<svg xmlns="http://www.w3.org/2000/svg" viewBox="0 0 64 64" width="512" height="512"><path d="m8 25.99311-2 12.00689h6v11h14v13h30v-36.00689l-.02046.99973q.0204-.49732.02046-.99973a24 24 0 0 0 -48 0z" fill="#65cecc"/><circle cx="32" cy="27" fill="#f4db73" r="18"/><path d="m45.88593 28.70538v-3.4107l-2.08783-.43878a11.879 11.879 0 0 0 -.51282-1.90314l1.59972-1.43317a13.96613 13.96613 0 0 0 -1.71643-2.93615l-2.01831.66284a12.064 12.064 0 0 0 -1.39626-1.39612l.663-2.01837a13.96389 13.96389 0 0 0 -2.93634-1.71662l-1.43323 1.59961a11.88774 11.88774 0 0 0 -1.90319-.51288l-.43885-2.08783h-3.4107l-.43879 2.08783a11.88531 11.88531 0 0 0 -1.90314.51282l-1.43317-1.59967a13.96462 13.96462 0 0 0 -2.93615 1.71643l.66284 2.01831a12.064 12.064 0 0 0 -1.39612 1.39621l-2.01837-.663a13.96322 13.96322 0 0 0 -1.71656 2.93628l1.59961 1.43322a11.87909 11.87909 0 0 0 -.51287 1.9032l-2.0879.43885v3.41076l2.08783.43878a11.87733 11.87733 0 0 0 .51282 1.90314l-1.59967 1.43317a13.96613 13.96613 0 0 0 1.71643 2.93615l2.01831-.66284a12.064 12.064 0 0 0 1.39621 1.39613l-.663 2.01837a13.96389 13.96389 0 0 0 2.93634 1.71662l1.43323-1.59967a11.88788 11.88788 0 0 0 1.90319.51294l.43885 2.08783h3.4107l.43878-2.08783a11.88545 11.88545 0 0 0 1.90314-.51288l1.43318 1.59978a13.96613 13.96613 0 0 0 2.93615-1.71643l-.66284-2.01831a12.06871 12.06871 0 0 0 1.39612-1.39626l2.01837.663a13.96389 13.96389 0 0 0 1.71662-2.93634l-1.59961-1.43323a11.88774 11.88774 0 0 0 .51288-1.90319z" fill="#de2f55"/><path d="m46.8335 7.13892a23.99432 23.99432 0 0 0 -38.8335 18.85418l-2 12.0069h5.82471a39.0128 39.0128 0 0 1 35.00879-30.86108z" fill="#7ee8e3"/><path d="m36.22473 9.51923a17.942 17.942 0 0 0 -21.91373 20.75012 39.10749 39.10749 0 0 1 21.91373-20.75012z" fill="#f7e7a4"/><path d="m21.93091 18.944-1.09912-.361a13.96322 13.96322 0 0 0 -1.71656 2.93628l.31568.28283q1.18121-1.48946 2.5-2.85811z" fill="#f42a68"/><path d="m26.51959 14.11505a13.96462 13.96462 0 0 0 -2.93615 1.71643l.3814 1.16132q1.424-1.27807 2.97-2.41431z" fill="#f42a68"/><circle cx="32" cy="27" fill="#f7bcec" r="8"/><path d="m30 23v8l6-4z" fill="#5facf9"/></svg>
