<svg id="Capa_1" enable-background="new 0 0 512 512" height="512" viewBox="0 0 512 512" width="512" xmlns="http://www.w3.org/2000/svg"><path d="m497 482h-16v-197c0-2.332-.638-4.82-1.583-6.708l-43.417-86.833v-34.282c1.773 1.374 3.598 2.871 5.486 4.42 9.994 8.199 22.432 18.403 39.514 18.403 8.284 0 15-6.716 15-15v-60c0-8.284-6.716-15-15-15-6.35 0-12.901-5.374-20.486-11.597-9.994-8.199-22.432-18.403-39.514-18.403-8.284 0-15 6.716-15 15v116.459l-39.271 78.541h-50.729v-45c0-2.131-.555-4.653-1.583-6.708l-43.417-86.833v-34.282c1.773 1.374 3.598 2.871 5.486 4.42 9.994 8.199 22.432 18.403 39.514 18.403 8.284 0 15-6.716 15-15v-60c0-8.284-6.716-15-15-15-6.35 0-12.901-5.374-20.486-11.597-9.994-8.199-22.432-18.403-39.514-18.403-8.284 0-15 6.716-15 15v116.459l-43.417 86.833c-1.036 2.071-1.583 4.578-1.583 6.708v45h-50.729l-39.271-78.541v-34.282c1.773 1.374 3.598 2.871 5.486 4.42 9.994 8.199 22.432 18.403 39.514 18.403 8.284 0 15-6.716 15-15v-60c0-8.284-6.716-15-15-15-6.35 0-12.901-5.374-20.486-11.597-9.994-8.199-22.432-18.403-39.514-18.403-8.284 0-15 6.716-15 15v116.459l-43.417 86.833c-1.046 2.09-1.583 4.576-1.583 6.708v197h-16c-8.284 0-15 6.716-15 15s6.716 15 15 15h482c8.284 0 15-6.716 15-15s-6.716-15-15-15zm-241-91c-24.813 0-45 20.187-45 45v46h-60v-122h210v122h-60v-46c0-24.813-20.187-45-45-45zm-165-162.459 20.729 41.459h-41.458zm120 71.459h150v30h-210v-30zm210-71.459 20.729 41.459h-41.459zm45-111.259v25.542c-1.773-1.374-3.598-2.871-5.486-4.42-6.806-5.583-14.747-12.094-24.514-15.681v-25.546c1.773 1.374 3.598 2.871 5.486 4.42 6.806 5.584 14.746 12.097 24.514 15.685zm-210 51.259 20.729 41.459h-41.459zm45-111.259v25.542c-1.773-1.374-3.598-2.871-5.486-4.42-6.806-5.584-14.747-12.094-24.514-15.682v-25.545c1.773 1.374 3.598 2.871 5.486 4.42 6.806 5.584 14.746 12.097 24.514 15.685zm-75 182.718h60v30h-60zm-90-122.718v25.542c-1.773-1.374-3.598-2.871-5.486-4.42-6.806-5.583-14.747-12.094-24.514-15.681v-25.546c1.773 1.374 3.598 2.871 5.486 4.42 6.806 5.584 14.746 12.097 24.514 15.685zm-75 364.718v-182h60v182zm180 0v-46c0-8.271 6.729-15 15-15s15 6.729 15 15v46zm150 0v-182h60v182z"/></svg>