<svg id="Capa_1" enable-background="new 0 0 512 512" height="512" viewBox="0 0 512 512" width="512" xmlns="http://www.w3.org/2000/svg"><g><path d="m256 76-15 15v60h15 15v-90z" fill="#283366"/><path d="m271 61-15 15v75h15z" fill="#17204d"/><path d="m421 361h91v151h-61l-30-30z" fill="#b5dbff"/><path d="m61 512h-61v-151h91v117.053z" fill="#d5e8fe"/><path d="m361 226h-210c0-57.9 47.1-105 105-105s105 47.1 105 105z" fill="#d5e8fe"/><path d="m361 226h-105v-105c57.9 0 105 47.1 105 105z" fill="#b5dbff"/><path d="m121 211h270v120h-270z" fill="#edf5ff"/><path d="m256 211h135v120h-135z" fill="#d5e8fe"/><path d="m391 301-30 15h-210l-30-15 135-90z" fill="#d5e8fe"/><path d="m391 301-30 15h-105v-105z" fill="#b5dbff"/><path d="m451 301v211h-60l-15-30-15 30h-30l-15-30-15 30h-30l-15-30-15 30h-30l-15-30-15 30h-30l-15-30-15 30h-60v-211z" fill="#edf5ff"/><path d="m451 301v211h-60l-15-30-15 30h-30l-15-30-15 30h-30l-15-30v-181z" fill="#d5e8fe"/><g fill="#283366"><path d="m121 361h30v151h-30z"/><path d="m181 361h30v151h-30z"/><path d="m241 361h30v151h-30z"/></g><path d="m301 361h30v151h-30z" fill="#17204d"/><path d="m361 361h30v151h-30z" fill="#17204d"/><path d="m256 361h15v151h-15z" fill="#17204d"/><path d="m256 0h-15v91h15 105v-91z" fill="#e64d2e"/><path d="m256 0h105v91h-105z" fill="#b33c24"/></g></svg>