<?xml version="1.0" encoding="iso-8859-1"?>
<!-- Generator: Adobe Illustrator 19.0.0, SVG Export Plug-In . SVG Version: 6.00 Build 0)  -->
<svg version="1.1" id="Capa_1" xmlns="http://www.w3.org/2000/svg" xmlns:xlink="http://www.w3.org/1999/xlink" x="0px" y="0px"
	 viewBox="0 0 512 512" style="enable-background:new 0 0 512 512;" xml:space="preserve">
<rect x="10.111" y="421.993" style="fill:#F9D6BD;" width="95.086" height="79.753"/>
<rect x="10.111" y="342.49" style="fill:#898998;" width="95.086" height="79.503"/>
<path style="fill:#C9F3FF;" d="M10.111,230.545h55.234l94.18-94.18c7.807-7.807,20.465-7.807,28.272,0
	c7.806,7.807,7.806,20.465,0,28.272l-82.604,82.604v95.252H10.111"/>
<path style="fill:#FFC66C;" d="M392.079,293.626c-7.807-7.807-20.465-7.807-28.272,0l-94.18,94.18h-27.255l-94.18-94.18
	c-7.807-7.807-20.465-7.807-28.272,0c-7.806,7.807-7.806,20.465,0,28.272l82.604,82.604v95.252h106.95v-95.252l82.604-82.604
	C399.885,314.091,399.885,301.432,392.079,293.626z"/>
<rect x="202.525" y="221.966" style="fill:#898998;" width="106.95" height="125.991"/>
<g>
	<circle style="fill:#F9D6BD;" cx="256" cy="342.12" r="41.607"/>
	<circle style="fill:#F9D6BD;" cx="256" cy="64.33" r="41.607"/>
</g>
<path style="fill:#D8FB93;" d="M392.079,15.836c-7.807-7.807-20.465-7.807-28.272,0l-94.18,94.18h-27.255l-94.18-94.18
	c-7.807-7.807-20.465-7.807-28.272,0s-7.806,20.465,0,28.272l82.604,82.604v95.252h106.95v-95.252l82.604-82.604
	C399.885,36.302,399.885,23.644,392.079,15.836z"/>
<g>
	<circle style="fill:#F9D6BD;" cx="51.718" cy="184.863" r="41.607"/>
	<rect x="406.81" y="421.993" style="fill:#F9D6BD;" width="95.086" height="79.753"/>
</g>
<rect x="406.81" y="342.49" style="fill:#898998;" width="95.086" height="79.503"/>
<path style="fill:#D8D8E4;" d="M501.889,230.545h-55.234l-94.179-94.179c-7.807-7.807-20.465-7.807-28.272,0
	c-7.806,7.807-7.806,20.465,0,28.272l82.604,82.604v95.252h95.082"/>
<circle style="fill:#F9D6BD;" cx="460.285" cy="184.863" r="41.607"/>
<path d="M255.999,257.772c-2.629,0-5.208,1.069-7.067,2.929c-1.859,1.858-2.929,4.437-2.929,7.067c0,2.629,1.07,5.208,2.929,7.066
	c1.859,1.859,4.438,2.93,7.067,2.93s5.208-1.07,7.067-2.93c1.859-1.858,2.929-4.437,2.929-7.066c0-2.63-1.07-5.209-2.929-7.067
	C261.207,258.841,258.628,257.772,255.999,257.772z"/>
<path d="M345.408,143.433l94.18,94.18c1.874,1.874,4.417,2.928,7.068,2.928h55.234c5.52,0,9.995-4.475,9.995-9.995
	s-4.475-9.995-9.995-9.995h-4.391c8.9-9.277,14.386-21.851,14.386-35.69c0-28.454-23.149-51.602-51.602-51.602
	c-26.404,0-48.225,19.937-51.235,45.545l-49.504-49.505c-8.532-8.532-20.966-10.83-31.608-6.91l71.211-71.212
	c11.691-11.692,11.691-30.715,0-42.407l0,0c-11.692-11.692-30.716-11.692-42.408,0l-49.504,49.505
	c-3.01-25.608-24.831-45.545-51.235-45.545s-48.225,19.937-51.235,45.545L155.26,8.769c-11.692-11.692-30.716-11.692-42.408,0
	c-11.691,11.692-11.691,30.715,0,42.407l71.212,71.211c-10.642-3.92-23.076-1.621-31.608,6.91l-49.504,49.506
	c-3.01-25.608-24.831-45.545-51.235-45.545c-28.454,0-51.602,23.148-51.602,51.602c0,13.84,5.486,26.414,14.386,35.69H10.11
	c-5.52,0-9.995,4.475-9.995,9.995s4.475,9.995,9.995,9.995h55.234c2.651,0,5.194-1.054,7.068-2.928l94.18-94.18
	c3.897-3.897,10.239-3.897,14.136,0c3.897,3.897,3.897,10.239,0,14.136l-82.604,82.604c-1.874,1.874-2.928,4.417-2.928,7.068v85.256
	h-43.48c-5.52,0-9.995,4.476-9.995,9.995s4.475,9.995,9.995,9.995h43.48v59.638H61.712V388.93c0-5.519-4.475-9.995-9.995-9.995
	s-9.995,4.476-9.995,9.995v23.196H10.11c-5.52,0-9.995,4.476-9.995,9.995s4.475,9.995,9.995,9.995h31.611v69.886
	c0,5.519,4.475,9.995,9.995,9.995s9.995-4.476,9.995-9.995v-69.885h33.484v69.634c0,5.519,4.475,9.995,9.995,9.995
	s9.995-4.476,9.995-9.995v-79.63v-0.126v-79.503v-11.193l77.342,77.342v91.11c0,5.519,4.475,9.995,9.995,9.995h106.95
	c5.52,0,9.995-4.476,9.995-9.995v-91.11l77.342-77.343v11.194v79.503v0.126v79.63c0,5.519,4.475,9.995,9.995,9.995
	c5.52,0,9.995-4.476,9.995-9.995v-69.634h33.484v69.886c0,5.519,4.475,9.995,9.995,9.995c5.52,0,9.995-4.476,9.995-9.995v-69.886
	h31.611c5.52,0,9.995-4.476,9.995-9.995s-4.475-9.995-9.995-9.995h-31.611v-23.196c0-5.519-4.475-9.995-9.995-9.995
	c-5.52,0-9.995,4.476-9.995,9.995v23.196h-33.484v-59.638h85.086c5.52,0,9.995-4.476,9.995-9.995s-4.475-9.995-9.995-9.995h-85.086
	v-85.256c0-2.651-1.053-5.194-2.928-7.068l-82.604-82.603c-3.897-3.897-3.897-10.239,0-14.137
	C335.167,139.537,341.51,139.537,345.408,143.433z M460.282,153.248c17.431,0,31.611,14.181,31.611,31.611
	c0,17.431-14.181,31.611-31.611,31.611c-17.43,0-31.611-14.181-31.611-31.611S442.851,153.248,460.282,153.248z M51.717,153.248
	c17.431,0,31.611,14.181,31.611,31.611c0,17.431-14.181,31.611-31.611,31.611s-31.611-14.181-31.611-31.611
	C20.105,167.43,34.286,153.248,51.717,153.248z M255.999,32.719c17.431,0,31.611,14.181,31.611,31.611
	c0,17.431-14.181,31.611-31.611,31.611s-31.611-14.18-31.611-31.611S238.568,32.719,255.999,32.719z M126.989,22.905
	c3.896-3.897,10.239-3.897,14.136,0l94.18,94.18c1.874,1.874,4.417,2.928,7.068,2.928h27.255c2.651,0,5.194-1.054,7.068-2.928
	l94.18-94.18c3.896-3.897,10.239-3.897,14.136,0c3.897,3.897,3.897,10.239,0,14.136l-82.604,82.604
	c-1.874,1.874-2.928,4.417-2.928,7.068v85.256h-86.959v-85.256c0-2.651-1.054-5.194-2.928-7.068l-82.604-82.603
	C123.091,33.143,123.091,26.801,126.989,22.905z M385.011,314.83l-82.604,82.604c-1.874,1.875-2.928,4.417-2.928,7.068v85.256
	H212.52v-85.256c0-2.651-1.054-5.193-2.928-7.068l-82.604-82.603c-3.897-3.897-3.897-10.24,0-14.137
	c3.896-3.898,10.239-3.898,14.136,0l94.18,94.18c1.874,1.874,4.417,2.928,7.068,2.928h27.255c2.651,0,5.194-1.053,7.068-2.928
	l94.18-94.18c3.896-3.898,10.239-3.897,14.136-0.001C388.908,304.591,388.908,310.934,385.011,314.83z M255.999,373.731
	c-17.431,0-31.611-14.181-31.611-31.611c0-17.431,14.181-31.612,31.611-31.612s31.611,14.181,31.611,31.612
	C287.612,359.55,273.43,373.731,255.999,373.731z M396.812,251.382v33.075c-11.766-9.541-29.13-8.841-40.073,2.102l-49.504,49.505
	c-3.01-25.608-24.831-45.546-51.235-45.546s-48.225,19.938-51.235,45.546l-49.504-49.505c-10.943-10.943-28.308-11.643-40.073-2.101
	v-33.076l77.342-77.342v47.924v62.176c0,5.519,4.475,9.995,9.995,9.995s9.995-4.476,9.995-9.995v-52.181h86.959v52.181
	c0,5.519,4.475,9.995,9.995,9.995s9.995-4.476,9.995-9.995v-62.176v-47.924L396.812,251.382z"/>
<path d="M28.176,349.559c1.859-1.858,2.929-4.437,2.929-7.066s-1.069-5.208-2.929-7.067s-4.438-2.929-7.067-2.929
	c-2.639,0-5.208,1.069-7.067,2.929c-1.869,1.859-2.929,4.438-2.929,7.067s1.06,5.208,2.929,7.066c1.859,1.859,4.438,2.93,7.067,2.93
	S26.317,351.419,28.176,349.559z"/>
<g>
</g>
<g>
</g>
<g>
</g>
<g>
</g>
<g>
</g>
<g>
</g>
<g>
</g>
<g>
</g>
<g>
</g>
<g>
</g>
<g>
</g>
<g>
</g>
<g>
</g>
<g>
</g>
<g>
</g>
</svg>
