<svg id="Capa_1" enable-background="new 0 0 351.652 351.652" height="512" viewBox="0 0 351.652 351.652" width="512" xmlns="http://www.w3.org/2000/svg"><g><path d="m251.526 21.562c-26.726 0-50.985 10.492-68.938 27.557-17.953-17.065-42.212-27.557-68.938-27.557-55.298 0-100.125 44.828-100.125 100.125 0 101.594 74.302 180.072 169.064 208.402 94.761-28.33 169.064-106.808 169.064-208.402-.001-55.297-44.829-100.125-100.127-100.125z" fill="#e56353"/><path d="m351.638 121.706c0 101.561-74.293 180.071-169.037 208.379-61.988-18.487-115.195-58.464-144.6-112.364 30.734 39.977 75.737 69.672 126.633 84.923 94.744-28.366 169.037-106.818 169.037-208.437 0-14.327-3.004-27.903-8.435-40.209 16.408 17.851 26.402 41.595 26.402 67.708z" fill="#d15241"/><path d="m156.654 229.323c-2.236 0-4.223-1.475-4.855-3.645l-33.445-114.742-25.374 61.663c-.781 1.898-2.629 3.136-4.68 3.136h-83.239c-2.795 0-5.061-2.266-5.061-5.061s2.266-5.061 5.061-5.061h79.849l29.582-71.885c.818-1.989 2.842-3.247 4.949-3.128 2.147.114 3.988 1.574 4.589 3.637l31.174 106.951 7.48-47.027c.393-2.456 2.51-4.265 4.999-4.265h20.991l17.919-41.253c.823-1.893 2.718-3.153 4.774-3.042 2.066.054 3.887 1.357 4.608 3.291l25.913 69.548 8.797-20.479c.798-1.858 2.627-3.064 4.65-3.064h18.191c2.795 0 5.061 2.266 5.061 5.061s-2.266 5.061-5.061 5.061h-14.858l-12.464 29.019c-.818 1.9-2.812 3.17-4.774 3.062-2.068-.049-3.897-1.354-4.618-3.291l-25.938-69.619-14.243 32.785c-.803 1.848-2.624 3.044-4.64 3.044h-19.99l-10.346 65.041c-.373 2.338-2.318 4.107-4.68 4.255-.108.005-.214.008-.321.008z" fill="#ebf0f3"/></g></svg>