<svg id="Capa_1" enable-background="new 0 0 512.665 512.665" height="512" viewBox="0 0 512.665 512.665" width="512" xmlns="http://www.w3.org/2000/svg"><g><g id="XMLID_223_"><g><path d="m170.562 177.494 10.45 249.68v69.548c0 5.695 4.617 10.312 10.312 10.312h157.596c5.695 0 10.312-4.617 10.312-10.312v-71.648c0-1.96.52-3.88 1.51-5.56l11.37-19.42c6.36-10.87 9.72-23.24 9.72-35.83v-185.8z" fill="#eb9c8d"/><path d="m174.753 277.619 5.857 139.947h75.268c27.548 0 50.208-22.114 50.402-49.661.001-.19.002-43.76.002-43.76 0-.169-.001-.339-.002-.508-.178-25.524-21.171-46.017-46.696-46.017h-84.831z" fill="#d78878"/><path d="m172.998 235.685c4.684 1.514 9.674 2.341 14.856 2.341 8.013 0 15.57-1.968 22.234-5.428 8.798 9.006 21.062 14.611 34.616 14.611 8.38 0 16.268-2.142 23.15-5.904 8.724 8.469 20.609 13.699 33.699 13.699 8.41 0 16.323-2.158 23.222-5.945 8.719 8.425 20.574 13.625 33.629 13.625 8.495 0 16.482-2.206 23.43-6.065v-78.155l-211.27-.97z" fill="#d78878"/><path d="m216.274 189.606c0 15.7-12.72 28.42-28.42 28.42s-28.42-12.72-28.42-28.42v-56.23c0-15.7 12.72-28.43 28.42-28.43 7.85 0 14.96 3.18 20.1 8.33 5.14 5.14 8.32 12.25 8.32 20.1z" fill="#eb9c8d"/><path d="m273.123 198.789c0 15.7-12.72 28.42-28.42 28.42s-28.42-12.72-28.42-28.42v-56.23c0-15.7 12.72-28.43 28.42-28.43 7.85 0 14.96 3.18 20.1 8.33 5.14 5.14 8.32 12.25 8.32 20.1z" fill="#eb9c8d"/><g fill="#d78878"><path d="m180.73 189.606v-56.23c0-11.934 7.365-22.149 17.786-26.364-3.29-1.331-6.895-2.066-10.661-2.066-15.7 0-28.42 12.73-28.42 28.43v56.23c0 15.7 12.72 28.42 28.42 28.42 3.767 0 7.359-.739 10.648-2.069-10.422-4.213-17.773-14.418-17.773-26.351z"/><path d="m237.579 198.789v-56.23c0-11.934 7.362-22.149 17.783-26.365-3.29-1.331-6.892-2.065-10.659-2.065-15.7 0-28.42 12.73-28.42 28.43v56.23c0 15.7 12.72 28.42 28.42 28.42 3.767 0 7.358-.739 10.647-2.069-10.419-4.213-17.771-14.418-17.771-26.351z"/><path d="m225.973 419.105-47.552-53.87 2.592 61.939v69.548c0 5.695 4.617 10.312 10.312 10.312h34.726z"/></g><path d="m255.072 267.274 18.88 22.73c7.97 9.59 12.33 21.67 12.33 34.14v43.19c0 33.049-26.791 59.84-59.84 59.84h-45.43v-1.79l-79.04-89.54c-22.86-25.9-27.97-62.97-12.97-94.08l21.58-44.76c10.79-22.39 38.08-31.26 59.98-19.51l90 48.32c3.48 1.87 6.32 4.6 8.31 7.86s3.12 7.03 3.2 10.98c.16 8.19-4.28 15.78-11.5 19.66z" fill="#eb9c8d"/></g><path d="m275.274 229.766c-2.711-4.441-6.57-8.092-11.163-10.56l-94-49.32c-.541-.29-1.126-.523-1.732-.708l-.379.475c-2.269 2.84-5.929 4.237-9.492 3.519-19.018-3.832-39.051 5.417-47.925 23.832l-21.58 44.76c-15 31.11-9.89 68.18 12.97 94.08l79.04 89.54v1.79h44.968l-.002-1.927c-.004-3.959-1.451-7.78-4.071-10.748l-74.896-84.846c-22.86-25.9-27.97-62.97-12.97-94.08l21.58-44.76c.89-1.847 1.896-3.596 3.002-5.25 1.479-2.211 4.358-2.987 6.708-1.74 17.873 9.486 91.682 48.597 91.682 48.597 2.246 1.207 4.134 2.992 5.458 5.162 1.324 2.168 2.052 4.667 2.103 7.218.106 5.401-2.788 10.347-7.556 12.909l-11.796 6.348c-16.771 9.014-36.957 9.327-53.992.835l-27.29-13.61c-3.776-1.883-8.377-.286-10.159 3.571-1.722 3.728.07 8.159 3.745 9.992l27.011 13.47c10.346 5.157 21.614 7.728 32.876 7.728 12.024 0 24.04-2.931 34.914-8.775l11.797-6.348c9.745-5.238 15.664-15.358 15.447-26.418-.107-5.209-1.592-10.304-4.298-14.736z" fill="#d78878"/></g><g id="XMLID_222_"><g fill="#eb9c8d"><path d="m329.972 206.584c0 15.7-12.72 28.42-28.42 28.42s-28.42-12.72-28.42-28.42v-56.23c0-15.7 12.72-28.43 28.42-28.43 7.85 0 14.96 3.18 20.1 8.33 5.14 5.14 8.32 12.25 8.32 20.1z"/><path d="m386.822 159.874v54.39c0 15.69-12.72 28.42-28.42 28.42s-28.43-12.73-28.43-28.42v-54.39c0-15.7 12.73-28.43 28.43-28.43 7.85 0 14.95 3.18 20.1 8.33 5.14 5.14 8.32 12.25 8.32 20.1z"/></g></g><g id="XMLID_224_"><g fill="#d78878"><path d="m294.428 206.584v-56.23c0-11.934 7.364-22.149 17.785-26.364-3.29-1.331-6.894-2.066-10.661-2.066-15.7 0-28.42 12.73-28.42 28.43v56.23c0 15.7 12.72 28.42 28.42 28.42 3.767 0 7.372-.736 10.661-2.066-10.42-4.213-17.785-14.421-17.785-26.354z"/><path d="m351.268 214.264v-54.39c0-11.934 7.369-22.148 17.792-26.364-3.289-1.331-6.891-2.066-10.658-2.066-15.7 0-28.43 12.73-28.43 28.43v54.39c0 15.69 12.73 28.42 28.43 28.42 3.766 0 7.369-.736 10.658-2.066-10.423-4.215-17.792-14.428-17.792-26.354z"/></g></g><g><path d="m344.431 78.741c-1.391 0-2.796-.386-4.052-1.194-3.483-2.242-4.49-6.882-2.248-10.366l37.394-58.108c2.241-3.484 6.883-4.49 10.365-2.249 3.483 2.242 4.49 6.882 2.248 10.366l-37.394 58.108c-1.432 2.228-3.848 3.443-6.313 3.443z" fill="#fee97d"/></g><g><path d="m422.019 129.428c-1.62 0-3.251-.522-4.624-1.6-3.259-2.556-3.829-7.271-1.272-10.53l83.14-105.989c2.557-3.259 7.272-3.828 10.53-1.272 3.259 2.556 3.829 7.271 1.272 10.53l-83.14 105.989c-1.479 1.886-3.681 2.872-5.906 2.872z" fill="#fee97d"/></g><g><path d="m471.809 235.307c-2.635 0-5.19-1.391-6.562-3.856-2.013-3.62-.71-8.187 2.909-10.2l33.361-18.552c3.62-2.014 8.188-.71 10.2 2.91 2.013 3.62.71 8.187-2.909 10.2l-33.361 18.552c-1.154.641-2.405.946-3.638.946z" fill="#fee97d"/></g><g><path d="m504.142 355.063c-1.32 0-2.656-.348-3.868-1.08l-32.347-19.52c-3.547-2.14-4.687-6.75-2.547-10.296 2.141-3.547 6.753-4.686 10.297-2.546l32.347 19.52c3.547 2.14 4.687 6.75 2.547 10.296-1.409 2.335-3.888 3.626-6.429 3.626z" fill="#fee97d"/></g><g><path d="m424.713 417.096c-2.118 0-4.223-.892-5.706-2.628l-12.023-14.071c-2.69-3.149-2.319-7.883.83-10.574 3.151-2.69 7.885-2.318 10.574.83l12.023 14.071c2.69 3.149 2.319 7.883-.83 10.574-1.413 1.207-3.145 1.798-4.868 1.798z" fill="#fee97d"/></g><g><path d="m487.979 491.141c-2.118 0-4.223-.892-5.706-2.628l-41.868-49.001c-2.69-3.149-2.319-7.883.83-10.574 3.151-2.69 7.885-2.318 10.574.83l41.868 49.001c2.69 3.149 2.319 7.883-.83 10.574-1.413 1.207-3.145 1.798-4.868 1.798z" fill="#fee97d"/></g><g><path d="m285.003 57.885c-.784 0-1.582-.124-2.367-.385-3.931-1.307-6.058-5.552-4.751-9.483l8.279-24.906c1.307-3.93 5.551-6.057 9.483-4.751 3.931 1.307 6.058 5.552 4.751 9.483l-8.279 24.906c-1.045 3.145-3.973 5.136-7.116 5.136z" fill="#fee97d"/></g><g><path d="m168.234 78.741c-2.466 0-4.88-1.215-6.313-3.442l-37.394-58.109c-2.242-3.483-1.235-8.124 2.248-10.366 3.483-2.241 8.124-1.234 10.365 2.249l37.394 58.108c2.242 3.483 1.235 8.124-2.248 10.366-1.256.807-2.663 1.194-4.052 1.194z" fill="#fee97d"/></g><g><path d="m92.646 129.428c-2.207 0-4.393-.969-5.873-2.831l-85.14-106.989c-2.58-3.241-2.043-7.959 1.198-10.539s7.96-2.043 10.538 1.199l85.14 106.989c2.58 3.241 2.043 7.959-1.198 10.539-1.38 1.098-3.028 1.632-4.665 1.632z" fill="#fee97d"/></g><g><path d="m42.856 235.307c-1.174 0-2.365-.276-3.478-.86l-35.361-18.552c-3.668-1.924-5.081-6.458-3.157-10.126 1.925-3.668 6.459-5.081 10.126-3.157l35.361 18.552c3.668 1.924 5.081 6.458 3.157 10.126-1.341 2.556-3.949 4.017-6.648 4.017z" fill="#fee97d"/></g><g><path d="m10.523 355.063c-2.541 0-5.02-1.292-6.429-3.626-2.14-3.546-1-8.156 2.547-10.296l32.347-19.52c3.547-2.14 8.156-1 10.297 2.546 2.14 3.546 1 8.156-2.547 10.296l-32.347 19.52c-1.212.732-2.549 1.08-3.868 1.08z" fill="#fee97d"/></g><g><path d="m89.952 417.096c-1.724 0-3.455-.591-4.868-1.798-3.149-2.691-3.521-7.425-.83-10.574l12.023-14.071c2.69-3.149 7.425-3.521 10.574-.83s3.521 7.425.83 10.574l-12.023 14.071c-1.484 1.736-3.588 2.628-5.706 2.628z" fill="#fee97d"/></g><g><path d="m26.686 491.141c-1.724 0-3.455-.59-4.868-1.798-3.149-2.691-3.521-7.425-.83-10.574l41.868-49.001c2.689-3.148 7.424-3.522 10.574-.83 3.149 2.691 3.521 7.425.83 10.574l-41.868 49.001c-1.483 1.736-3.588 2.628-5.706 2.628z" fill="#fee97d"/></g><g><path d="m227.662 57.885c-3.143 0-6.07-1.99-7.116-5.136l-8.279-24.906c-1.307-3.931.82-8.176 4.751-9.483 3.931-1.306 8.176.82 9.483 4.751l8.279 24.906c1.307 3.931-.82 8.176-4.751 9.483-.785.261-1.583.385-2.367.385z" fill="#fee97d"/></g></g></svg>