<svg id="Capa_1" enable-background="new 0 0 512 512" height="512" viewBox="0 0 512 512" width="512" xmlns="http://www.w3.org/2000/svg"><g><path d="m467 50h-422c-24.813 0-45 20.187-45 45v228c0 24.813 20.187 45 45 45h422c24.813 0 45-20.187 45-45v-228c0-24.813-20.187-45-45-45z" fill="#6c6c6c"/><path d="m467 50h-211v318h211c24.813 0 45-20.187 45-45v-228c0-24.813-20.187-45-45-45z" fill="#404040"/><path d="m432 160h-80c-8.284 0-15-6.716-15-15s6.716-15 15-15h80c8.284 0 15 6.716 15 15s-6.716 15-15 15z" fill="#ff4c04"/><g fill="#3aaaff"><path d="m432 224h-80c-8.284 0-15-6.716-15-15s6.716-15 15-15h80c8.284 0 15 6.716 15 15s-6.716 15-15 15z"/><path d="m432 288h-80c-8.284 0-15-6.716-15-15s6.716-15 15-15h80c8.284 0 15 6.716 15 15s-6.716 15-15 15z"/><circle cx="288" cy="273.001" r="14.999"/><circle cx="288" cy="209.001" r="15"/></g><circle cx="288" cy="145.002" fill="#ff4c04" r="15"/><path d="m216.101 280.408c-16.311-19.609-39.076-30.408-64.101-30.408s-47.79 10.799-64.101 30.408c-14.552 17.495-22.899 41.038-22.899 64.592v87c0 16.542 13.458 30 30 30h114c16.542 0 30-13.458 30-30v-87c0-23.554-8.347-47.097-22.899-64.592z" fill="#b9dd39"/><path d="m209 462c16.542 0 30-13.458 30-30v-87c0-23.554-8.347-47.097-22.899-64.592-16.311-19.609-39.076-30.408-64.101-30.408v212z" fill="#90cc1c"/><path d="m152 280c-39.149 0-71-31.851-71-71s31.851-71 71-71 71 31.851 71 71-31.851 71-71 71z" fill="#fed2a4"/><path d="m223 209c0-39.149-31.851-71-71-71v142c39.149 0 71-31.851 71-71z" fill="#ffbd86"/></g></svg>