<?xml version="1.0"?>
<svg xmlns="http://www.w3.org/2000/svg" id="_x33_0" enable-background="new 0 0 64 64" height="512px" viewBox="0 0 64 64" width="512px" class=""><g><g><path d="m27 33h-10v8h10zm-2 6h-6v-4h6z" data-original="#000000" class="active-path" data-old_color="#000000" fill="#FFFFFF"/><path d="m27 23h-10v8h10zm-2 6h-6v-4h6z" data-original="#000000" class="active-path" data-old_color="#000000" fill="#FFFFFF"/><path d="m47 33h-10v8h10zm-2 6h-6v-4h6z" data-original="#000000" class="active-path" data-old_color="#000000" fill="#FFFFFF"/><path d="m58 12h-1c-2.206 0-4 1.794-4 4v7h-2v-6c0-1.103-.897-2-2-2h-10v-7c0-3.859-3.141-7-7-7s-7 3.141-7 7v7h-10c-1.103 0-2 .897-2 2v6h-2v-7c0-2.206-1.794-4-4-4h-1c-2.757 0-5 2.243-5 5v35c0 1.654 1.346 3 3 3h9v6c0 1.103.897 2 2 2h34c1.103 0 2-.897 2-2v-6h9c1.654 0 3-1.346 3-3v-35c0-2.757-2.243-5-5-5zm-1 2h1c1.654 0 3 1.346 3 3v6.026c-.838-.635-1.87-1.026-3-1.026h-1c-.732 0-1.409.212-2 .556v-6.556c0-1.103.897-2 2-2zm-3.858 21c-.084.322-.142.653-.142 1v3h-2v-4zm-.142 6v2h-2v-2zm.52 4 3.199 4h-5.719v-4zm-2.52-12v-2h2v2zm2.142-8c-.084.322-.142.653-.142 1v3h-2v-4zm-26.142-17c0-2.757 2.243-5 5-5s5 2.243 5 5v7h-10zm22 9v40h-10v-5c0-.34-.033-.672-.08-1h8.08v-8h-10v4.111c-1.272-1.301-3.042-2.111-5-2.111s-3.728.81-5 2.111v-4.111h-10v8h8.08c-.047.328-.08.66-.08 1v5h-10v-40zm-22 35c0-2.757 2.243-5 5-5s5 2.243 5 5v9h-10zm12-3v-4h6v4zm-14-4v4h-6v-4zm-14-14h2v2h-2zm2 12h-2v-2h2zm0-4h-2v-3c0-.347-.058-.678-.142-1h2.142zm-2.52 6h2.52v4h-5.719zm2.52-16h-2v-3c0-.347-.058-.678-.142-1h2.142zm-7-15h1c1.103 0 2 .897 2 2v6.556c-.591-.344-1.268-.556-2-.556h-1c-1.13 0-2.162.391-3 1.026v-6.026c0-1.654 1.346-3 3-3zm0 10h1c1.103 0 2 .897 2 2v6.556c-.591-.344-1.268-.556-2-.556h-1c-1.13 0-2.162.391-3 1.026v-6.026c0-1.654 1.346-3 3-3zm0 10h1c1.103 0 2 .897 2 2v7.649l-6 7.5v-14.149c0-1.654 1.346-3 3-3zm-1.918 19 1.6-2h7.318v2zm10.918 6h10v2h-10zm24 2v-2h10v2zm12-10h7.319l1.6 2h-8.919zm10 .149-6-7.5v-7.649c0-1.103.897-2 2-2h1c1.654 0 3 1.346 3 3zm0-18.123c-.838-.635-1.87-1.026-3-1.026h-1c-.732 0-1.409.212-2 .556v-6.556c0-1.103.897-2 2-2h1c1.654 0 3 1.346 3 3z" data-original="#000000" class="active-path" data-old_color="#000000" fill="#FFFFFF"/><path d="m47 23h-10v8h10zm-2 6h-6v-4h6z" data-original="#000000" class="active-path" data-old_color="#000000" fill="#FFFFFF"/></g></g> </svg>
