<svg id="Capa_1" enable-background="new 0 0 512 512" height="512" viewBox="0 0 512 512" width="512" xmlns="http://www.w3.org/2000/svg"><g><path d="m341.127 0h155.42c8.535 0 15.453 6.919 15.453 15.453v481.094c0 8.534-6.918 15.453-15.453 15.453h-275.267c-8.071 0-11.997-9.861-6.135-15.408l70.022-66.259c5.848-5.534 8.261-13.788 6.314-21.6l-12.034-48.292c-2.665-10.693 2.877-21.729 13.044-25.979l103.417-43.232c7.785-3.254 13.067-10.622 13.652-19.039l9.882-142.278c.39-5.609-1.353-11.158-4.878-15.537l-80.388-99.852c-4.702-5.841-.546-14.524 6.951-14.524z" fill="#ce9775"/><path d="m496.547 0h-30.905c8.534 0 15.453 6.919 15.453 15.453v481.094c0 8.534-6.919 15.453-15.453 15.453h30.905c8.534 0 15.453-6.919 15.453-15.453v-481.094c0-8.534-6.919-15.453-15.453-15.453z" fill="#c6855b"/><g><path d="m3.772 305.775c4.814 4.814 12.544 5.05 17.643.537l181.139-160.329 55.098-55.098 18.956-38.141c1.576-3.17.951-6.992-1.553-9.496l-8.758-8.758c-2.503-2.503-6.325-3.128-9.496-1.553l-38.141 18.956-55.098 55.098-160.327 181.141c-4.512 5.099-4.277 12.829.537 17.643z" fill="#ce9775"/><path d="m275.056 43.249-8.758-8.758c-2.503-2.503-6.325-3.128-9.495-1.552l-15.339 7.624 2.687 2.687c2.503 2.504 3.128 6.325 1.553 9.495l-18.956 38.141-55.098 55.098-171.583 151.869c.267 2.897 1.499 5.716 3.705 7.922 4.814 4.815 12.544 5.05 17.643.537l181.139-160.328 55.098-55.098 18.956-38.141c1.576-3.17.951-6.992-1.552-9.496z" fill="#c6855b"/><path d="m85.224 5.279 219.044 219.044c2.096 2.096 5.655.325 5.246-2.612-5.134-36.872-22.154-71.064-48.478-97.388l-10.357-10.357-55.098-55.098-10.357-10.357c-26.324-26.324-60.516-43.344-97.388-48.478-2.936-.409-4.708 3.15-2.612 5.246z" fill="#c7c2c9"/><path d="m309.515 221.711c-5.134-36.872-22.154-71.063-48.478-97.388l-10.357-10.357-55.098-55.098-10.357-10.358c-26.325-26.323-60.517-43.343-97.389-48.478-2.936-.408-4.708 3.15-2.612 5.246l1.746 1.746c25.247 8.336 48.348 22.485 67.348 41.486l10.357 10.358 55.098 55.098 10.357 10.357c19 19 33.151 42.101 41.486 67.348l32.651 32.651c2.097 2.097 5.657.325 5.248-2.611z" fill="#b0aab3"/><path d="m162.188 105.618 41.741 41.741c3.688 3.688 9.669 3.688 13.357 0l41.741-41.741c3.688-3.688 3.688-9.669 0-13.357l-41.741-41.741c-3.688-3.688-9.669-3.688-13.357 0l-41.741 41.741c-3.688 3.688-3.688 9.668 0 13.357z" fill="#655e67"/><path d="m259.027 92.261-41.741-41.741c-3.688-3.688-9.668-3.688-13.357 0l-8.774 8.774c21.896 21.896 21.896 57.395 0 79.291l8.774 8.774c3.688 3.688 9.669 3.688 13.357 0l41.741-41.741c3.689-3.689 3.689-9.669 0-13.357z" fill="#544f56"/></g><g><path d="m307.9 304.577c-3.352 0-6.44-2.199-7.419-5.582l-8.894-30.748c-1.185-4.099 1.176-8.383 5.276-9.569 4.101-1.185 8.382 1.175 9.569 5.275l8.894 30.748c1.185 4.099-1.176 8.383-5.276 9.569-.716.208-1.438.307-2.15.307z" fill="#dfdce0"/></g><g><path d="m373.469 239.017c-.711 0-1.434-.099-2.151-.306l-30.748-8.894c-4.1-1.186-6.461-5.47-5.276-9.569 1.187-4.1 5.471-6.459 9.569-5.275l30.748 8.894c4.1 1.186 6.461 5.47 5.276 9.569-.979 3.381-4.066 5.581-7.418 5.581z" fill="#dfdce0"/></g><g fill="#655e67"><circle cx="360.048" cy="377.561" r="26.27"/><circle cx="452.249" cy="434.736" r="15.453"/><circle cx="464.097" cy="218.398" r="15.453"/><circle cx="452.249" cy="48.419" r="15.453"/></g><circle cx="440.067" cy="326.567" fill="#dfdce0" r="7.726"/><circle cx="347.35" cy="481.095" fill="#dfdce0" r="7.726"/><circle cx="470.972" cy="141.135" fill="#dfdce0" r="7.726"/><g><path d="m344.898 276.009c-1.977 0-3.955-.755-5.464-2.263l-19.821-19.821c-3.017-3.017-3.017-7.909 0-10.927 3.018-3.017 7.909-3.017 10.928 0l19.821 19.821c3.017 3.017 3.017 7.909 0 10.927-1.509 1.508-3.487 2.263-5.464 2.263z" fill="#dfdce0"/></g></g></svg>