<svg id="color" enable-background="new 0 0 24 24" height="512" viewBox="0 0 24 24" width="512" xmlns="http://www.w3.org/2000/svg"><g><g><circle cx="12" cy="9" fill="#fafafa" r="5"/></g></g><g><g><path d="m12 14c-2.757 0-5-2.243-5-5s2.243-5 5-5 5 2.243 5 5-2.243 5-5 5zm0-8.5c-1.93 0-3.5 1.57-3.5 3.5s1.57 3.5 3.5 3.5 3.5-1.57 3.5-3.5-1.57-3.5-3.5-3.5z" fill="#f44336"/></g></g><g><g><circle cx="12" cy="9" fill="#f44336" r="1.75"/></g></g><g><g><path d="m12 9.75c-.192 0-.384-.073-.53-.22-.293-.293-.293-.768 0-1.061l3-3c.293-.293.768-.293 1.061 0s.293.768 0 1.061l-3 3c-.147.147-.339.22-.531.22z" fill="#607d8b"/></g></g><g><g><path d="m17.75 6.5h-2.5c-.414 0-.75-.336-.75-.75v-2.5c0-.199.079-.39.22-.53l2.5-2.5c.215-.215.538-.278.817-.163.28.116.463.39.463.693v1.75h1.75c.303 0 .577.183.693.463s.052.603-.163.817l-2.5 2.5c-.14.141-.331.22-.53.22z" fill="#2196f3"/></g></g><g><g><path d="m16 22h-2v-2h-4v2h-2c-.552 0-1 .448-1 1s.448 1 1 1h8c.553 0 1-.448 1-1s-.447-1-1-1z" fill="#90a4ae"/></g></g><g><g><path d="m24 5.75v12.5c0 .96-.79 1.75-1.75 1.75h-20.5c-.96 0-1.75-.79-1.75-1.75v-12.5c0-.96.79-1.75 1.75-1.75h6.11c-.67.55-1.22 1.23-1.62 2h-4.24v12h20v-12h-1.32l1.16-1.16c.24-.24.41-.52.52-.83.91.05 1.64.82 1.64 1.74z" fill="#607d8b"/></g></g><g><g><path d="m22 6v12h-20v-12h4.24c-.47.9-.74 1.92-.74 3 0 3.58 2.92 6.5 6.5 6.5s6.5-2.92 6.5-6.5c0-.38-.04-.75-.1-1.11.35-.1.68-.29.94-.55l1.34-1.34z" fill="#fafafa"/></g></g><g><g><path d="m12 20h-2v2h-2c-.552 0-1 .448-1 1s.448 1 1 1h4z" fill="#7d8f97"/></g></g><g><g><path d="m7.86 4h-6.11c-.96 0-1.75.79-1.75 1.75v12.5c0 .96.79 1.75 1.75 1.75h10.25v-2h-10v-12h4.24c.4-.77.95-1.45 1.62-2z" fill="#546d79"/></g></g><g><g><path d="m6.24 6h-4.24v12h10v-2.5c-3.58 0-6.5-2.92-6.5-6.5 0-1.08.27-2.1.74-3z" fill="#dadada"/></g></g><g><g><path d="m12 5.5c-1.93 0-3.5 1.57-3.5 3.5 0 .965.393 1.84 1.026 2.474l1.236-1.236c-.316-.317-.512-.755-.512-1.238 0-.966.783-1.75 1.75-1.75.206 0 .404.036.588.101l1.298-1.298c-.544-.35-1.192-.553-1.886-.553z" fill="#dadada"/></g></g><g><g><path d="m12 4c-2.757 0-5 2.243-5 5 0 1.378.561 2.628 1.466 3.534l1.06-1.06c-.633-.634-1.026-1.509-1.026-2.474 0-1.93 1.57-3.5 3.5-3.5.694 0 1.342.203 1.886.553l.584-.583c.01-.01.02-.019.03-.029v-.77c-.736-.426-1.59-.671-2.5-.671z" fill="#d43a2f"/></g></g><g><g><path d="m12 7.25c-.967 0-1.75.784-1.75 1.75 0 .483.196.921.513 1.237l.707-.707c-.293-.293-.293-.768 0-1.061l1.118-1.118c-.184-.065-.382-.101-.588-.101z" fill="#d43a2f"/></g></g><g><g><path d="m14.5 5.441c-.01.009-.02.019-.03.029l-.583.583-1.298 1.298-1.119 1.119c-.293.293-.293.768 0 1.061l3.25-3.25c-.136-.136-.22-.323-.22-.53z" fill="#546d79"/></g></g><g><g><path d="m17.75 0c-.195 0-.387.076-.53.22l-2.5 2.5c-.141.14-.22.331-.22.53v1.421.77.309c0 .207.084.395.22.53l3.78-3.78v-1.75c0-.303-.183-.577-.463-.693-.093-.038-.19-.057-.287-.057z" fill="#1d83d4"/></g></g></svg>