<svg id="Capa_1" enable-background="new 0 0 512 512" height="512" viewBox="0 0 512 512" width="512" xmlns="http://www.w3.org/2000/svg"><g><g><path d="m10 166v336h492c0-14.679 0-321.09 0-336-7.348 0-485.148 0-492 0z" fill="#fcf5d9"/><path d="m502 436h-126c-33.14 0-60-26.86-60-60v-30c0-49.71-40.29-90-90-90h-105c-24.85 0-45-20.15-45-45s20.15-45 45-45h381z" fill="#b3f1ff"/><path d="m412 10-79.61 82.79-70.39-52.79-120 126h360v-66z" fill="#ffda8f"/><path d="m72.22 476.58-1.04-.1c6.16-61.48 36.43-81.38 88.82-94.48-55.3-9.22-90.39-1.91-112.59 12.83l-.09-.14c13.01-44.71 37.05-61.28 82.68-72.69-80.8-13.47-95.41 8.35-120 37.09v142.91h105.24c21.78-35.31 33.73-49.74 74.76-60-78.43-13.07-92.76 7.11-117.78 34.58z" fill="#d8ec84"/><circle cx="55" cy="55" fill="#ffda8f" r="45"/></g><g><path d="m55 110c30.327 0 55-24.673 55-55s-24.673-55-55-55-55 24.673-55 55 24.673 55 55 55zm0-90c19.299 0 35 15.701 35 35s-15.701 35-35 35-35-15.701-35-35 15.701-35 35-35z"/><path d="m452 226c0-5.522-4.477-10-10-10h-126c-5.523 0-10 4.478-10 10s4.477 10 10 10h126c5.523 0 10-4.478 10-10z"/><path d="m406 276h-30c-5.523 0-10 4.478-10 10s4.477 10 10 10h30c5.523 0 10-4.478 10-10s-4.477-10-10-10z"/><circle cx="326" cy="502" r="10"/><path d="m10 512h270.998c5.523 0 10-4.478 10-10s-4.477-10-10-10h-147.497c15.457-22.887 27.6-32.466 58.925-40.299 4.597-1.149 7.755-5.366 7.566-10.101-.189-4.734-3.675-8.686-8.348-9.465-38.945-6.489-75.767-8.662-104.285 14.83 11.341-32.974 35.891-45.469 75.067-55.265 4.596-1.149 7.755-5.366 7.566-10.101-.189-4.733-3.674-8.686-8.348-9.465-38.636-6.44-70.788-5.43-96.014 2.962 11.942-22.774 30.992-34.443 66.795-43.396 4.596-1.149 7.755-5.366 7.566-10.101-.189-4.733-3.674-8.686-8.348-9.465-42.341-7.055-81.259-9.126-111.643 20.765v-156.909h58.605c-7.87 9.526-12.605 21.725-12.605 35.01 0 30.327 24.673 55 55 55h105c44.112 0 80 35.888 80 80v30c0 38.599 31.402 70 70 70h116v46h-121c-5.523 0-10 4.478-10 10s4.477 10 10 10h131c5.523 0 10-4.478 10-10 0-18.911 0-384.232 0-402 0-2.652-1.054-5.195-2.929-7.071l-90-90c-1.876-1.876-4.42-2.929-7.071-2.929-.033 0-.066 0-.098.001-2.686.025-5.249 1.132-7.11 3.067l-73.477 76.416-63.315-47.484c-4.056-3.042-9.746-2.568-13.241 1.104l-117.044 122.896h-127.715c-5.523 0-10 4.478-10 10v336c0 5.522 4.477 10 10 10zm366-86c-27.57 0-50-22.43-50-50v-30c0-55.141-44.86-100-100-100h-105c-19.299 0-35-15.701-35-35s15.701-35 35-35h371v160h-56c-5.523 0-10 4.478-10 10s4.477 10 10 10h56v70zm36.14-401.718 79.86 79.86v51.858h-206.512zm-149.029 29.051 54.238 40.676-59.606 61.991h-92.41zm-114.655 394.52c-15.558 9.961-25.914 23.664-38.771 44.147h-29.513c.12-3.428.306-6.733.553-9.912 19.338-21.314 30.66-34.528 67.731-34.235zm-87.225 27.621c-.524 5.179-.88 10.712-1.07 16.526h-40.161v-12.49c0-59.049 28.742-91.247 93.845-91.592-29.324 15.405-47.887 40.372-52.614 87.556zm-41.231-112.703c17.728-20.856 29.373-34.548 65.274-34.958-24.894 13.727-38.221 34.021-46.592 60.922-7.234 5.272-13.467 11.477-18.682 18.608z"/></g></g></svg>